<svg xmlns="http://www.w3.org/2000/svg" xmlns:xlink="http://www.w3.org/1999/xlink" version="1.1" x="0px" y="0px" viewBox="0 0 100 100" enable-background="new 0 0 100 100" xml:space="preserve"><path d="M42.69,83.003c0.021,0,0.041,0,0.062,0c1.795-0.033,3.223-1.515,3.188-3.31l-1-53.782c-0.033-1.794-1.522-3.236-3.31-3.189  c-1.795,0.033-3.223,1.515-3.188,3.31l1,53.782C39.475,81.587,40.923,83.003,42.69,83.003z M57.315,83.003  c1.767,0,3.216-1.416,3.248-3.189l1-53.782c0.034-1.795-1.394-3.277-3.188-3.31c-1.786-0.007-3.276,1.395-3.31,3.189l-1,53.782  c-0.034,1.795,1.394,3.277,3.188,3.31C57.274,83.003,57.295,83.003,57.315,83.003z M77.001,22.722  c-1.775-0.044-3.295,1.35-3.353,3.144l-2,62.14c-0.001,0.035-0.002,0.07-0.002,0.104c0,1.281-1.04,2.323-2.317,2.323H30.68  c-1.281,0-2.323-1.042-2.323-2.323c0-0.035-0.001-0.07-0.002-0.104l-2-62.14c-0.058-1.794-1.599-3.189-3.353-3.144  c-1.794,0.058-3.201,1.559-3.144,3.353l1.998,62.094c0.032,4.838,3.978,8.765,8.823,8.765h38.649c4.843,0,8.786-3.926,8.817-8.765  l1.998-62.093C80.202,24.281,78.795,22.78,77.001,22.722z M82.02,12.722H66.93l-1.463-7.064c-0.313-1.509-1.642-2.591-3.183-2.591  h-24.56c-1.541,0-2.87,1.082-3.183,2.591l-1.464,7.064H17.98c-1.795,0-3.25,1.455-3.25,3.25s1.455,3.25,3.25,3.25h17.731  c0.008,0,0.015,0,0.022,0h28.541c0.002,0,0.004,0,0.006,0s0.003,0,0.005,0H82.02c1.795,0,3.25-1.455,3.25-3.25  S83.814,12.722,82.02,12.722z M39.717,12.722l0.653-3.155h19.269l0.653,3.155H39.717z"/></svg>