<svg xmlns="http://www.w3.org/2000/svg" viewBox="0 0 32 40" x="0px" y="0px"><g data-name="Layer 2"><path d="M29,21a1,1,0,0,0-1,1v3.07A2.94,2.94,0,0,1,25.07,28H6.93A2.94,2.94,0,0,1,4,25.07V22a1,1,0,0,0-2,0v3.07A4.93,4.93,0,0,0,6.93,30H25.07A4.93,4.93,0,0,0,30,25.07V22A1,1,0,0,0,29,21Z"/><path d="M9.73,11.1,15,5.52V24a1,1,0,0,0,2,0V5.52l5.27,5.58a1,1,0,0,0,.73.31,1,1,0,0,0,.69-.27,1,1,0,0,0,0-1.41l-7-7.42a1,1,0,0,0-1.46,0l-7,7.42a1,1,0,0,0,0,1.41A1,1,0,0,0,9.73,11.1Z"/></g><text x="0" y="47" fill="#000000" font-size="5px" font-weight="bold" font-family="'Helvetica Neue', Helvetica, Arial-Unicode, Arial, Sans-serif">Created by Lestari Sevtiani</text><text x="0" y="52" fill="#000000" font-size="5px" font-weight="bold" font-family="'Helvetica Neue', Helvetica, Arial-Unicode, Arial, Sans-serif">from the Noun Project</text></svg>